# xmcd CD database file
#
# Track frame offsets:
#	182
#	15945
#	33045
#	48752
#	76782
#	97607
#	110787
#	136982
#	155425
#	172500
#	195822
#	209735
#	222560
#	240970
#	259992
#	275280
#
# Disc length: 3897 seconds
#
# Revision: 6
# Processed by: cddbd v1.5.2PL0 Copyright (c) Steve Scherf et al.
# Submitted via: CDex 1.51
#
DISCID=bd0f3710
DTITLE=Various Artist - Masters Of Rock 1
DYEAR=1996
DGENRE=Rock
TTITLE0=Steppenwolf - Born To Be Wild
TTITLE1=Quireboys - Roses And Rings
TTITLE2=Groundhogs - Snowstorm
TTITLE3=Atomic Rooster - Ear In The Snow
TTITLE4=Judie Tzuke - Wonderland
TTITLE5=Tygers Of PanTang - Paris By Air
TTITLE6=Hawkwind - Levitation
TTITLE7=Little Angels - Bad Or Just No Good
TTITLE8=Dirty Strangers - Biggest Mouth
TTITLE9=Saxon-747 - Strangers In The Night
TTITLE10=Red Dogs - Lizzy Gone Bad
TTITLE11=Judas Priest - The Ripper
TTITLE12=Lindisfarne - Lady Eleanor
TTITLE13=Persian Risk - Jane
TTITLE14=Red Dogs - Wrong Side Of Town
TTITLE15=Uriah Heep - Too Scared To Run
EXTD=YEAR: 1996
EXTT0=
EXTT1=
EXTT2=
EXTT3=
EXTT4=
EXTT5=
EXTT6=
EXTT7=
EXTT8=
EXTT9=
EXTT10=
EXTT11=
EXTT12=
EXTT13=
EXTT14=
EXTT15=
PLAYORDER=
